<?xml version="1.0" standalone="no"?>
<!DOCTYPE svg PUBLIC "-//W3C//DTD SVG 20010904//EN"
 "http://www.w3.org/TR/2001/REC-SVG-20010904/DTD/svg10.dtd">
<svg version="1.0" xmlns="http://www.w3.org/2000/svg"
 width="337.000000pt" height="337.000000pt" viewBox="0 0 337.000000 337.000000"
 preserveAspectRatio="xMidYMid meet">
<metadata>
Created by potrace 1.11, written by Peter Selinger 2001-2013
</metadata>
<g transform="translate(0.000000,337.000000) scale(0.100000,-0.100000)"
fill="#000000" stroke="none">
<path d="M1199 2875 c-87 -24 -109 -78 -109 -260 l0 -134 -293 1 c-287 1 -317
-1 -367 -25 -31 -15 -111 -93 -103 -101 4 -3 1 -6 -5 -6 -7 0 -11 -3 -11 -7 3
-17 -14 -73 -22 -73 -5 0 -9 -139 -9 -310 l0 -310 23 0 c30 0 2658 0 2730 0
l57 0 0 310 c0 200 -4 310 -10 310 -5 0 -10 7 -10 16 0 28 -32 84 -69 123 -67
69 -87 72 -423 73 l-298 0 0 134 c0 100 -4 144 -16 174 -16 38 -61 81 -94 88
-41 8 -941 6 -971 -3z m884 -184 c13 -2 7 -201 -7 -202 -6 -1 -187 -2 -402 -3
l-391 -1 0 95 c-1 52 0 100 2 105 1 6 141 9 396 9 217 -1 397 -2 402 -3z"/>
<path d="M280 980 l0 -500 1405 0 1405 0 0 500 0 500 -525 0 -525 0 0 -135 c0
-144 -7 -175 -48 -196 -36 -20 -578 -20 -614 0 -41 21 -48 52 -48 196 l0 135
-525 0 -525 0 0 -500z"/>
<path d="M1490 1390 l0 -90 195 0 195 0 0 90 0 90 -195 0 -195 0 0 -90z"/>
</g>
</svg>
